<mxfile host="app.diagrams.net" agent="Mozilla/5.0 (X11; Linux x86_64; rv:137.0) Gecko/20100101 Firefox/137.0" version="26.2.12">
  <diagram name="Page-1" id="rN2KOYrv98jf9-0r46Vi">
    <mxGraphModel dx="275" dy="161" grid="1" gridSize="10" guides="1" tooltips="1" connect="1" arrows="1" fold="1" page="1" pageScale="1" pageWidth="850" pageHeight="1100" math="0" shadow="0">
      <root>
        <mxCell id="0" />
        <mxCell id="1" parent="0" />
        <mxCell id="F5lC8ROlCVbnqiS2axrL-3" value="Disfraz" style="rounded=0;whiteSpace=wrap;html=1;" parent="1" vertex="1">
          <mxGeometry x="230" y="190" width="160" height="60" as="geometry" />
        </mxCell>
        <mxCell id="F5lC8ROlCVbnqiS2axrL-5" value="Cliente" style="rounded=0;whiteSpace=wrap;html=1;" parent="1" vertex="1">
          <mxGeometry x="1040" y="429.8" width="160" height="60" as="geometry" />
        </mxCell>
        <mxCell id="F5lC8ROlCVbnqiS2axrL-14" value="" style="group" parent="1" vertex="1" connectable="0">
          <mxGeometry x="268" y="162.00127018922194" width="8" height="28" as="geometry" />
        </mxCell>
        <mxCell id="F5lC8ROlCVbnqiS2axrL-15" value="" style="ellipse;whiteSpace=wrap;html=1;aspect=fixed;fillColor=light-dark(#FFFFFF,#FFFFFF);" parent="F5lC8ROlCVbnqiS2axrL-14" vertex="1">
          <mxGeometry width="8" height="8" as="geometry" />
        </mxCell>
        <mxCell id="F5lC8ROlCVbnqiS2axrL-16" style="edgeStyle=orthogonalEdgeStyle;rounded=0;orthogonalLoop=1;jettySize=auto;html=1;endArrow=none;startFill=0;" parent="F5lC8ROlCVbnqiS2axrL-14" edge="1">
          <mxGeometry relative="1" as="geometry">
            <mxPoint x="4" y="28" as="targetPoint" />
            <mxPoint x="4" y="8" as="sourcePoint" />
          </mxGeometry>
        </mxCell>
        <mxCell id="F5lC8ROlCVbnqiS2axrL-17" value="&lt;font style=&quot;font-size: 8px;&quot;&gt;nombre&lt;/font&gt;" style="text;html=1;align=center;verticalAlign=middle;resizable=0;points=[];autosize=1;strokeColor=none;fillColor=none;rotation=-60;" parent="1" vertex="1">
          <mxGeometry x="250" y="127.00127018922194" width="50" height="30" as="geometry" />
        </mxCell>
        <mxCell id="F5lC8ROlCVbnqiS2axrL-18" value="" style="group" parent="1" vertex="1" connectable="0">
          <mxGeometry x="286" y="162.00127018922194" width="8" height="28" as="geometry" />
        </mxCell>
        <mxCell id="F5lC8ROlCVbnqiS2axrL-19" value="" style="ellipse;whiteSpace=wrap;html=1;aspect=fixed;" parent="F5lC8ROlCVbnqiS2axrL-18" vertex="1">
          <mxGeometry width="8" height="8" as="geometry" />
        </mxCell>
        <mxCell id="F5lC8ROlCVbnqiS2axrL-20" style="edgeStyle=orthogonalEdgeStyle;rounded=0;orthogonalLoop=1;jettySize=auto;html=1;endArrow=none;startFill=0;" parent="F5lC8ROlCVbnqiS2axrL-18" edge="1">
          <mxGeometry relative="1" as="geometry">
            <mxPoint x="4" y="28" as="targetPoint" />
            <mxPoint x="4" y="8" as="sourcePoint" />
          </mxGeometry>
        </mxCell>
        <mxCell id="F5lC8ROlCVbnqiS2axrL-21" value="&lt;font style=&quot;font-size: 8px;&quot;&gt;descripcion&lt;/font&gt;" style="text;html=1;align=center;verticalAlign=middle;resizable=0;points=[];autosize=1;strokeColor=none;fillColor=none;rotation=-60;" parent="1" vertex="1">
          <mxGeometry x="260" y="117.00127018922194" width="80" height="30" as="geometry" />
        </mxCell>
        <mxCell id="F5lC8ROlCVbnqiS2axrL-22" value="" style="group" parent="1" vertex="1" connectable="0">
          <mxGeometry x="306" y="162.00127018922194" width="8" height="28" as="geometry" />
        </mxCell>
        <mxCell id="F5lC8ROlCVbnqiS2axrL-23" value="" style="ellipse;whiteSpace=wrap;html=1;aspect=fixed;" parent="F5lC8ROlCVbnqiS2axrL-22" vertex="1">
          <mxGeometry width="8" height="8" as="geometry" />
        </mxCell>
        <mxCell id="F5lC8ROlCVbnqiS2axrL-24" style="edgeStyle=orthogonalEdgeStyle;rounded=0;orthogonalLoop=1;jettySize=auto;html=1;endArrow=none;startFill=0;" parent="F5lC8ROlCVbnqiS2axrL-22" edge="1">
          <mxGeometry relative="1" as="geometry">
            <mxPoint x="4" y="28" as="targetPoint" />
            <mxPoint x="4" y="8" as="sourcePoint" />
          </mxGeometry>
        </mxCell>
        <mxCell id="F5lC8ROlCVbnqiS2axrL-25" value="&lt;font style=&quot;font-size: 8px;&quot;&gt;costo&lt;/font&gt;" style="text;html=1;align=center;verticalAlign=middle;resizable=0;points=[];autosize=1;strokeColor=none;fillColor=none;rotation=-60;" parent="1" vertex="1">
          <mxGeometry x="287" y="127.00127018922194" width="50" height="30" as="geometry" />
        </mxCell>
        <mxCell id="F5lC8ROlCVbnqiS2axrL-26" value="" style="group" parent="1" vertex="1" connectable="0">
          <mxGeometry x="326" y="162.00127018922194" width="8" height="28" as="geometry" />
        </mxCell>
        <mxCell id="F5lC8ROlCVbnqiS2axrL-27" value="" style="ellipse;whiteSpace=wrap;html=1;aspect=fixed;" parent="F5lC8ROlCVbnqiS2axrL-26" vertex="1">
          <mxGeometry width="8" height="8" as="geometry" />
        </mxCell>
        <mxCell id="F5lC8ROlCVbnqiS2axrL-28" style="edgeStyle=orthogonalEdgeStyle;rounded=0;orthogonalLoop=1;jettySize=auto;html=1;endArrow=none;startFill=0;" parent="F5lC8ROlCVbnqiS2axrL-26" edge="1">
          <mxGeometry relative="1" as="geometry">
            <mxPoint x="4" y="28" as="targetPoint" />
            <mxPoint x="4" y="8" as="sourcePoint" />
          </mxGeometry>
        </mxCell>
        <mxCell id="F5lC8ROlCVbnqiS2axrL-29" value="&lt;font style=&quot;font-size: 8px;&quot;&gt;tela&lt;/font&gt;" style="text;html=1;align=center;verticalAlign=middle;resizable=0;points=[];autosize=1;strokeColor=none;fillColor=none;rotation=-60;" parent="1" vertex="1">
          <mxGeometry x="312" y="127.00127018922194" width="40" height="30" as="geometry" />
        </mxCell>
        <mxCell id="F5lC8ROlCVbnqiS2axrL-30" value="" style="group" parent="1" vertex="1" connectable="0">
          <mxGeometry x="346" y="162.00127018922194" width="8" height="28" as="geometry" />
        </mxCell>
        <mxCell id="F5lC8ROlCVbnqiS2axrL-31" value="" style="ellipse;whiteSpace=wrap;html=1;aspect=fixed;" parent="F5lC8ROlCVbnqiS2axrL-30" vertex="1">
          <mxGeometry width="8" height="8" as="geometry" />
        </mxCell>
        <mxCell id="F5lC8ROlCVbnqiS2axrL-32" style="edgeStyle=orthogonalEdgeStyle;rounded=0;orthogonalLoop=1;jettySize=auto;html=1;endArrow=none;startFill=0;" parent="F5lC8ROlCVbnqiS2axrL-30" edge="1">
          <mxGeometry relative="1" as="geometry">
            <mxPoint x="4" y="28" as="targetPoint" />
            <mxPoint x="4" y="8" as="sourcePoint" />
          </mxGeometry>
        </mxCell>
        <mxCell id="F5lC8ROlCVbnqiS2axrL-33" value="&lt;font style=&quot;font-size: 8px;&quot;&gt;color(1,n)&lt;/font&gt;" style="text;html=1;align=center;verticalAlign=middle;resizable=0;points=[];autosize=1;strokeColor=none;fillColor=none;rotation=-60;" parent="1" vertex="1">
          <mxGeometry x="324" y="114.00127018922194" width="70" height="30" as="geometry" />
        </mxCell>
        <mxCell id="F5lC8ROlCVbnqiS2axrL-60" value="posee" style="rhombus;whiteSpace=wrap;html=1;" parent="1" vertex="1">
          <mxGeometry x="270" y="300" width="80" height="80" as="geometry" />
        </mxCell>
        <mxCell id="F5lC8ROlCVbnqiS2axrL-61" value="" style="endArrow=none;html=1;rounded=0;exitX=0.5;exitY=0;exitDx=0;exitDy=0;entryX=0.5;entryY=1;entryDx=0;entryDy=0;" parent="1" source="F5lC8ROlCVbnqiS2axrL-60" target="F5lC8ROlCVbnqiS2axrL-3" edge="1">
          <mxGeometry width="50" height="50" relative="1" as="geometry">
            <mxPoint x="370" y="290" as="sourcePoint" />
            <mxPoint x="420" y="240" as="targetPoint" />
          </mxGeometry>
        </mxCell>
        <mxCell id="F5lC8ROlCVbnqiS2axrL-63" value="(1,n)" style="text;html=1;align=center;verticalAlign=middle;resizable=0;points=[];autosize=1;strokeColor=none;fillColor=none;" parent="1" vertex="1">
          <mxGeometry x="304" y="252" width="60" height="30" as="geometry" />
        </mxCell>
        <mxCell id="F5lC8ROlCVbnqiS2axrL-96" value="" style="group" parent="1" vertex="1" connectable="0">
          <mxGeometry x="1067" y="402.001270189222" width="8" height="28" as="geometry" />
        </mxCell>
        <mxCell id="F5lC8ROlCVbnqiS2axrL-97" value="" style="ellipse;whiteSpace=wrap;html=1;aspect=fixed;fillColor=light-dark(#FFFFFF,#FFFFFF);" parent="F5lC8ROlCVbnqiS2axrL-96" vertex="1">
          <mxGeometry width="8" height="8" as="geometry" />
        </mxCell>
        <mxCell id="F5lC8ROlCVbnqiS2axrL-98" style="edgeStyle=orthogonalEdgeStyle;rounded=0;orthogonalLoop=1;jettySize=auto;html=1;endArrow=none;startFill=0;" parent="F5lC8ROlCVbnqiS2axrL-96" edge="1">
          <mxGeometry relative="1" as="geometry">
            <mxPoint x="4" y="28" as="targetPoint" />
            <mxPoint x="4" y="8" as="sourcePoint" />
          </mxGeometry>
        </mxCell>
        <mxCell id="F5lC8ROlCVbnqiS2axrL-99" value="&lt;font style=&quot;font-size: 8px;&quot;&gt;id_cliente&lt;/font&gt;" style="text;html=1;align=center;verticalAlign=middle;resizable=0;points=[];autosize=1;strokeColor=none;fillColor=none;rotation=-60;" parent="1" vertex="1">
          <mxGeometry x="1046" y="360.001270189222" width="70" height="30" as="geometry" />
        </mxCell>
        <mxCell id="F5lC8ROlCVbnqiS2axrL-108" value="" style="group" parent="1" vertex="1" connectable="0">
          <mxGeometry x="1086" y="402.001270189222" width="8" height="28" as="geometry" />
        </mxCell>
        <mxCell id="F5lC8ROlCVbnqiS2axrL-109" value="" style="ellipse;whiteSpace=wrap;html=1;aspect=fixed;" parent="F5lC8ROlCVbnqiS2axrL-108" vertex="1">
          <mxGeometry width="8" height="8" as="geometry" />
        </mxCell>
        <mxCell id="F5lC8ROlCVbnqiS2axrL-110" style="edgeStyle=orthogonalEdgeStyle;rounded=0;orthogonalLoop=1;jettySize=auto;html=1;endArrow=none;startFill=0;" parent="F5lC8ROlCVbnqiS2axrL-108" edge="1">
          <mxGeometry relative="1" as="geometry">
            <mxPoint x="4" y="28" as="targetPoint" />
            <mxPoint x="4" y="8" as="sourcePoint" />
          </mxGeometry>
        </mxCell>
        <mxCell id="F5lC8ROlCVbnqiS2axrL-111" value="&lt;font style=&quot;font-size: 8px;&quot;&gt;telefono&lt;/font&gt;" style="text;html=1;align=center;verticalAlign=middle;resizable=0;points=[];autosize=1;strokeColor=none;fillColor=none;rotation=-60;" parent="1" vertex="1">
          <mxGeometry x="1066" y="365.001270189222" width="60" height="30" as="geometry" />
        </mxCell>
        <mxCell id="F5lC8ROlCVbnqiS2axrL-178" value="" style="endArrow=none;html=1;rounded=0;exitX=0.5;exitY=0;exitDx=0;exitDy=0;entryX=0.5;entryY=1;entryDx=0;entryDy=0;" parent="1" edge="1">
          <mxGeometry width="50" height="50" relative="1" as="geometry">
            <mxPoint x="309.8" y="430" as="sourcePoint" />
            <mxPoint x="309.8" y="380" as="targetPoint" />
          </mxGeometry>
        </mxCell>
        <mxCell id="F5lC8ROlCVbnqiS2axrL-179" value="Ejemplar" style="rounded=0;whiteSpace=wrap;html=1;" parent="1" vertex="1">
          <mxGeometry x="230" y="430" width="160" height="60" as="geometry" />
        </mxCell>
        <mxCell id="F5lC8ROlCVbnqiS2axrL-180" value="" style="group" parent="1" vertex="1" connectable="0">
          <mxGeometry x="248" y="402.00127018922194" width="8" height="28" as="geometry" />
        </mxCell>
        <mxCell id="F5lC8ROlCVbnqiS2axrL-181" value="" style="ellipse;whiteSpace=wrap;html=1;aspect=fixed;fillColor=light-dark(#FFFFFF,#FFFFFF);" parent="F5lC8ROlCVbnqiS2axrL-180" vertex="1">
          <mxGeometry width="8" height="8" as="geometry" />
        </mxCell>
        <mxCell id="F5lC8ROlCVbnqiS2axrL-182" style="edgeStyle=orthogonalEdgeStyle;rounded=0;orthogonalLoop=1;jettySize=auto;html=1;endArrow=none;startFill=0;" parent="F5lC8ROlCVbnqiS2axrL-180" edge="1">
          <mxGeometry relative="1" as="geometry">
            <mxPoint x="4" y="28" as="targetPoint" />
            <mxPoint x="4" y="8" as="sourcePoint" />
          </mxGeometry>
        </mxCell>
        <mxCell id="F5lC8ROlCVbnqiS2axrL-183" value="&lt;font style=&quot;font-size: 8px;&quot;&gt;codigo&lt;/font&gt;" style="text;html=1;align=center;verticalAlign=middle;resizable=0;points=[];autosize=1;strokeColor=none;fillColor=none;rotation=-60;" parent="1" vertex="1">
          <mxGeometry x="230" y="367.00127018922194" width="50" height="30" as="geometry" />
        </mxCell>
        <mxCell id="F5lC8ROlCVbnqiS2axrL-184" value="" style="group" parent="1" vertex="1" connectable="0">
          <mxGeometry x="266" y="402.00127018922194" width="8" height="28" as="geometry" />
        </mxCell>
        <mxCell id="F5lC8ROlCVbnqiS2axrL-185" value="" style="ellipse;whiteSpace=wrap;html=1;aspect=fixed;" parent="F5lC8ROlCVbnqiS2axrL-184" vertex="1">
          <mxGeometry width="8" height="8" as="geometry" />
        </mxCell>
        <mxCell id="F5lC8ROlCVbnqiS2axrL-186" style="edgeStyle=orthogonalEdgeStyle;rounded=0;orthogonalLoop=1;jettySize=auto;html=1;endArrow=none;startFill=0;" parent="F5lC8ROlCVbnqiS2axrL-184" edge="1">
          <mxGeometry relative="1" as="geometry">
            <mxPoint x="4" y="28" as="targetPoint" />
            <mxPoint x="4" y="8" as="sourcePoint" />
          </mxGeometry>
        </mxCell>
        <mxCell id="F5lC8ROlCVbnqiS2axrL-187" value="&lt;font style=&quot;font-size: 8px;&quot;&gt;talle&lt;/font&gt;" style="text;html=1;align=center;verticalAlign=middle;resizable=0;points=[];autosize=1;strokeColor=none;fillColor=none;rotation=-60;" parent="1" vertex="1">
          <mxGeometry x="247" y="369.00127018922194" width="50" height="30" as="geometry" />
        </mxCell>
        <mxCell id="F5lC8ROlCVbnqiS2axrL-188" value="" style="group" parent="1" vertex="1" connectable="0">
          <mxGeometry x="370" y="402.00127018922194" width="8" height="28" as="geometry" />
        </mxCell>
        <mxCell id="F5lC8ROlCVbnqiS2axrL-189" value="" style="ellipse;whiteSpace=wrap;html=1;aspect=fixed;" parent="F5lC8ROlCVbnqiS2axrL-188" vertex="1">
          <mxGeometry width="8" height="8" as="geometry" />
        </mxCell>
        <mxCell id="F5lC8ROlCVbnqiS2axrL-190" style="edgeStyle=orthogonalEdgeStyle;rounded=0;orthogonalLoop=1;jettySize=auto;html=1;endArrow=none;startFill=0;" parent="F5lC8ROlCVbnqiS2axrL-188" edge="1">
          <mxGeometry relative="1" as="geometry">
            <mxPoint x="4" y="28" as="targetPoint" />
            <mxPoint x="4" y="8" as="sourcePoint" />
          </mxGeometry>
        </mxCell>
        <mxCell id="F5lC8ROlCVbnqiS2axrL-191" value="&lt;font style=&quot;font-size: 8px;&quot;&gt;estado&lt;/font&gt;" style="text;html=1;align=center;verticalAlign=middle;resizable=0;points=[];autosize=1;strokeColor=none;fillColor=none;rotation=-60;" parent="1" vertex="1">
          <mxGeometry x="352" y="369.00127018922194" width="50" height="30" as="geometry" />
        </mxCell>
        <mxCell id="F5lC8ROlCVbnqiS2axrL-200" value="" style="curved=1;endArrow=none;html=1;rounded=0;exitX=0.111;exitY=1.078;exitDx=0;exitDy=0;exitPerimeter=0;startFill=0;" parent="1" source="F5lC8ROlCVbnqiS2axrL-63" edge="1">
          <mxGeometry width="50" height="50" relative="1" as="geometry">
            <mxPoint x="230" y="330" as="sourcePoint" />
            <mxPoint x="260" y="420" as="targetPoint" />
            <Array as="points">
              <mxPoint x="270" y="290" />
              <mxPoint x="210" y="360" />
              <mxPoint x="220" y="420" />
            </Array>
          </mxGeometry>
        </mxCell>
        <mxCell id="F5lC8ROlCVbnqiS2axrL-201" value="" style="group" parent="1" vertex="1" connectable="0">
          <mxGeometry x="258" y="416.00127018922194" width="8" height="28" as="geometry" />
        </mxCell>
        <mxCell id="F5lC8ROlCVbnqiS2axrL-202" value="" style="ellipse;whiteSpace=wrap;html=1;aspect=fixed;fillColor=light-dark(#FFFFFF,#FFFFFF);" parent="F5lC8ROlCVbnqiS2axrL-201" vertex="1">
          <mxGeometry width="8" height="8" as="geometry" />
        </mxCell>
        <mxCell id="F5lC8ROlCVbnqiS2axrL-205" value="Institucion" style="rounded=0;whiteSpace=wrap;html=1;" parent="1" vertex="1">
          <mxGeometry x="920" y="730" width="160" height="60" as="geometry" />
        </mxCell>
        <mxCell id="F5lC8ROlCVbnqiS2axrL-206" value="Persona" style="rounded=0;whiteSpace=wrap;html=1;" parent="1" vertex="1">
          <mxGeometry x="1160" y="730" width="160" height="60" as="geometry" />
        </mxCell>
        <mxCell id="F5lC8ROlCVbnqiS2axrL-211" value="&lt;font style=&quot;font-size: 8px;&quot;&gt;DNI&lt;/font&gt;" style="text;html=1;align=center;verticalAlign=middle;resizable=0;points=[];autosize=1;strokeColor=none;fillColor=none;rotation=-60;" parent="1" vertex="1">
          <mxGeometry x="1241" y="674.0012701892219" width="40" height="30" as="geometry" />
        </mxCell>
        <mxCell id="F5lC8ROlCVbnqiS2axrL-212" value="" style="group" parent="1" vertex="1" connectable="0">
          <mxGeometry x="1276" y="702.0012701892219" width="8" height="28" as="geometry" />
        </mxCell>
        <mxCell id="F5lC8ROlCVbnqiS2axrL-213" value="" style="ellipse;whiteSpace=wrap;html=1;aspect=fixed;" parent="F5lC8ROlCVbnqiS2axrL-212" vertex="1">
          <mxGeometry width="8" height="8" as="geometry" />
        </mxCell>
        <mxCell id="F5lC8ROlCVbnqiS2axrL-214" style="edgeStyle=orthogonalEdgeStyle;rounded=0;orthogonalLoop=1;jettySize=auto;html=1;endArrow=none;startFill=0;" parent="F5lC8ROlCVbnqiS2axrL-212" edge="1">
          <mxGeometry relative="1" as="geometry">
            <mxPoint x="4" y="28" as="targetPoint" />
            <mxPoint x="4" y="8" as="sourcePoint" />
          </mxGeometry>
        </mxCell>
        <mxCell id="F5lC8ROlCVbnqiS2axrL-215" value="&lt;font style=&quot;font-size: 8px;&quot;&gt;nyap&lt;/font&gt;" style="text;html=1;align=center;verticalAlign=middle;resizable=0;points=[];autosize=1;strokeColor=none;fillColor=none;rotation=-60;" parent="1" vertex="1">
          <mxGeometry x="1262" y="673.0012701892219" width="40" height="30" as="geometry" />
        </mxCell>
        <mxCell id="F5lC8ROlCVbnqiS2axrL-217" value="" style="group" parent="1" vertex="1" connectable="0">
          <mxGeometry x="1256" y="702.0012701892219" width="8" height="28" as="geometry" />
        </mxCell>
        <mxCell id="F5lC8ROlCVbnqiS2axrL-218" value="" style="ellipse;whiteSpace=wrap;html=1;aspect=fixed;fillColor=light-dark(#FFFFFF,#FFFFFF);" parent="F5lC8ROlCVbnqiS2axrL-217" vertex="1">
          <mxGeometry width="8" height="8" as="geometry" />
        </mxCell>
        <mxCell id="F5lC8ROlCVbnqiS2axrL-219" style="edgeStyle=orthogonalEdgeStyle;rounded=0;orthogonalLoop=1;jettySize=auto;html=1;endArrow=none;startFill=0;" parent="F5lC8ROlCVbnqiS2axrL-217" edge="1">
          <mxGeometry relative="1" as="geometry">
            <mxPoint x="4" y="28" as="targetPoint" />
            <mxPoint x="4" y="8" as="sourcePoint" />
          </mxGeometry>
        </mxCell>
        <mxCell id="F5lC8ROlCVbnqiS2axrL-221" value="" style="group" parent="1" vertex="1" connectable="0">
          <mxGeometry x="1296" y="702.0012701892219" width="8" height="28" as="geometry" />
        </mxCell>
        <mxCell id="F5lC8ROlCVbnqiS2axrL-222" value="" style="ellipse;whiteSpace=wrap;html=1;aspect=fixed;" parent="F5lC8ROlCVbnqiS2axrL-221" vertex="1">
          <mxGeometry width="8" height="8" as="geometry" />
        </mxCell>
        <mxCell id="F5lC8ROlCVbnqiS2axrL-223" style="edgeStyle=orthogonalEdgeStyle;rounded=0;orthogonalLoop=1;jettySize=auto;html=1;endArrow=none;startFill=0;" parent="F5lC8ROlCVbnqiS2axrL-221" edge="1">
          <mxGeometry relative="1" as="geometry">
            <mxPoint x="4" y="28" as="targetPoint" />
            <mxPoint x="4" y="8" as="sourcePoint" />
          </mxGeometry>
        </mxCell>
        <mxCell id="F5lC8ROlCVbnqiS2axrL-224" value="&lt;font style=&quot;font-size: 8px;&quot;&gt;email(0,1)&lt;/font&gt;" style="text;html=1;align=center;verticalAlign=middle;resizable=0;points=[];autosize=1;strokeColor=none;fillColor=none;rotation=-60;" parent="1" vertex="1">
          <mxGeometry x="1274" y="660.0012701892219" width="70" height="30" as="geometry" />
        </mxCell>
        <mxCell id="F5lC8ROlCVbnqiS2axrL-228" value="" style="group" parent="1" vertex="1" connectable="0">
          <mxGeometry x="946" y="702.0012701892219" width="8" height="28" as="geometry" />
        </mxCell>
        <mxCell id="F5lC8ROlCVbnqiS2axrL-229" value="" style="ellipse;whiteSpace=wrap;html=1;aspect=fixed;" parent="F5lC8ROlCVbnqiS2axrL-228" vertex="1">
          <mxGeometry width="8" height="8" as="geometry" />
        </mxCell>
        <mxCell id="F5lC8ROlCVbnqiS2axrL-230" style="edgeStyle=orthogonalEdgeStyle;rounded=0;orthogonalLoop=1;jettySize=auto;html=1;endArrow=none;startFill=0;" parent="F5lC8ROlCVbnqiS2axrL-228" edge="1">
          <mxGeometry relative="1" as="geometry">
            <mxPoint x="4" y="28" as="targetPoint" />
            <mxPoint x="4" y="8" as="sourcePoint" />
          </mxGeometry>
        </mxCell>
        <mxCell id="F5lC8ROlCVbnqiS2axrL-231" value="" style="group" parent="1" vertex="1" connectable="0">
          <mxGeometry x="966" y="702.0012701892219" width="8" height="28" as="geometry" />
        </mxCell>
        <mxCell id="F5lC8ROlCVbnqiS2axrL-232" value="" style="ellipse;whiteSpace=wrap;html=1;aspect=fixed;" parent="F5lC8ROlCVbnqiS2axrL-231" vertex="1">
          <mxGeometry width="8" height="8" as="geometry" />
        </mxCell>
        <mxCell id="F5lC8ROlCVbnqiS2axrL-233" style="edgeStyle=orthogonalEdgeStyle;rounded=0;orthogonalLoop=1;jettySize=auto;html=1;endArrow=none;startFill=0;" parent="F5lC8ROlCVbnqiS2axrL-231" edge="1">
          <mxGeometry relative="1" as="geometry">
            <mxPoint x="4" y="28" as="targetPoint" />
            <mxPoint x="4" y="8" as="sourcePoint" />
          </mxGeometry>
        </mxCell>
        <mxCell id="F5lC8ROlCVbnqiS2axrL-234" value="&lt;font style=&quot;font-size: 8px;&quot;&gt;descripcion&lt;/font&gt;" style="text;html=1;align=center;verticalAlign=middle;resizable=0;points=[];autosize=1;strokeColor=none;fillColor=none;rotation=-60;" parent="1" vertex="1">
          <mxGeometry x="939" y="658.0012701892219" width="80" height="30" as="geometry" />
        </mxCell>
        <mxCell id="F5lC8ROlCVbnqiS2axrL-235" value="&lt;font style=&quot;font-size: 8px;&quot;&gt;nombre&lt;/font&gt;" style="text;html=1;align=center;verticalAlign=middle;resizable=0;points=[];autosize=1;strokeColor=none;fillColor=none;rotation=-60;" parent="1" vertex="1">
          <mxGeometry x="928" y="669.0012701892219" width="50" height="30" as="geometry" />
        </mxCell>
        <mxCell id="F5lC8ROlCVbnqiS2axrL-239" style="edgeStyle=orthogonalEdgeStyle;rounded=0;orthogonalLoop=1;jettySize=auto;html=1;entryX=1;entryY=0.5;entryDx=0;entryDy=0;endArrow=none;startFill=0;" parent="1" source="F5lC8ROlCVbnqiS2axrL-236" target="F5lC8ROlCVbnqiS2axrL-238" edge="1">
          <mxGeometry relative="1" as="geometry" />
        </mxCell>
        <mxCell id="F5lC8ROlCVbnqiS2axrL-236" value="Alquiler" style="rounded=0;whiteSpace=wrap;html=1;" parent="1" vertex="1">
          <mxGeometry x="630" y="430" width="160" height="60" as="geometry" />
        </mxCell>
        <mxCell id="F5lC8ROlCVbnqiS2axrL-240" style="edgeStyle=orthogonalEdgeStyle;rounded=0;orthogonalLoop=1;jettySize=auto;html=1;entryX=1;entryY=0.5;entryDx=0;entryDy=0;endArrow=none;startFill=0;" parent="1" source="F5lC8ROlCVbnqiS2axrL-238" target="F5lC8ROlCVbnqiS2axrL-179" edge="1">
          <mxGeometry relative="1" as="geometry" />
        </mxCell>
        <mxCell id="F5lC8ROlCVbnqiS2axrL-238" value="son_parte" style="rhombus;whiteSpace=wrap;html=1;" parent="1" vertex="1">
          <mxGeometry x="480" y="420" width="80" height="80" as="geometry" />
        </mxCell>
        <mxCell id="F5lC8ROlCVbnqiS2axrL-241" value="(0,n)" style="text;html=1;align=center;verticalAlign=middle;resizable=0;points=[];autosize=1;strokeColor=none;fillColor=none;" parent="1" vertex="1">
          <mxGeometry x="390" y="429.99999999999994" width="60" height="30" as="geometry" />
        </mxCell>
        <mxCell id="F5lC8ROlCVbnqiS2axrL-242" value="(1,n)" style="text;html=1;align=center;verticalAlign=middle;resizable=0;points=[];autosize=1;strokeColor=none;fillColor=none;" parent="1" vertex="1">
          <mxGeometry x="570" y="429.99999999999994" width="60" height="30" as="geometry" />
        </mxCell>
        <mxCell id="F5lC8ROlCVbnqiS2axrL-243" style="edgeStyle=orthogonalEdgeStyle;rounded=0;orthogonalLoop=1;jettySize=auto;html=1;entryX=1;entryY=0.5;entryDx=0;entryDy=0;endArrow=none;startFill=0;exitX=-0.001;exitY=0.511;exitDx=0;exitDy=0;exitPerimeter=0;" parent="1" source="F5lC8ROlCVbnqiS2axrL-5" target="F5lC8ROlCVbnqiS2axrL-245" edge="1">
          <mxGeometry relative="1" as="geometry">
            <mxPoint x="1030" y="460" as="sourcePoint" />
            <Array as="points">
              <mxPoint x="1000" y="461" />
            </Array>
          </mxGeometry>
        </mxCell>
        <mxCell id="F5lC8ROlCVbnqiS2axrL-244" style="edgeStyle=orthogonalEdgeStyle;rounded=0;orthogonalLoop=1;jettySize=auto;html=1;entryX=1;entryY=0.5;entryDx=0;entryDy=0;endArrow=none;startFill=0;" parent="1" source="F5lC8ROlCVbnqiS2axrL-245" edge="1">
          <mxGeometry relative="1" as="geometry">
            <mxPoint x="790" y="460" as="targetPoint" />
          </mxGeometry>
        </mxCell>
        <mxCell id="F5lC8ROlCVbnqiS2axrL-245" value="tiene" style="rhombus;whiteSpace=wrap;html=1;" parent="1" vertex="1">
          <mxGeometry x="880" y="420" width="80" height="80" as="geometry" />
        </mxCell>
        <mxCell id="F5lC8ROlCVbnqiS2axrL-246" value="(1,1)" style="text;html=1;align=center;verticalAlign=middle;resizable=0;points=[];autosize=1;strokeColor=none;fillColor=none;" parent="1" vertex="1">
          <mxGeometry x="790" y="429.99999999999994" width="60" height="30" as="geometry" />
        </mxCell>
        <mxCell id="F5lC8ROlCVbnqiS2axrL-247" value="(1,n)" style="text;html=1;align=center;verticalAlign=middle;resizable=0;points=[];autosize=1;strokeColor=none;fillColor=none;" parent="1" vertex="1">
          <mxGeometry x="980" y="429.79999999999995" width="60" height="30" as="geometry" />
        </mxCell>
        <mxCell id="F5lC8ROlCVbnqiS2axrL-248" value="&lt;font style=&quot;font-size: 8px;&quot;&gt;fecha_com&lt;/font&gt;" style="text;html=1;align=center;verticalAlign=middle;resizable=0;points=[];autosize=1;strokeColor=none;fillColor=none;rotation=-60;" parent="1" vertex="1">
          <mxGeometry x="692" y="363.00127018922194" width="70" height="30" as="geometry" />
        </mxCell>
        <mxCell id="F5lC8ROlCVbnqiS2axrL-249" value="" style="group" parent="1" vertex="1" connectable="0">
          <mxGeometry x="736" y="402.00127018922194" width="8" height="28" as="geometry" />
        </mxCell>
        <mxCell id="F5lC8ROlCVbnqiS2axrL-250" value="" style="ellipse;whiteSpace=wrap;html=1;aspect=fixed;" parent="F5lC8ROlCVbnqiS2axrL-249" vertex="1">
          <mxGeometry width="8" height="8" as="geometry" />
        </mxCell>
        <mxCell id="F5lC8ROlCVbnqiS2axrL-251" style="edgeStyle=orthogonalEdgeStyle;rounded=0;orthogonalLoop=1;jettySize=auto;html=1;endArrow=none;startFill=0;" parent="F5lC8ROlCVbnqiS2axrL-249" edge="1">
          <mxGeometry relative="1" as="geometry">
            <mxPoint x="4" y="28" as="targetPoint" />
            <mxPoint x="4" y="8" as="sourcePoint" />
          </mxGeometry>
        </mxCell>
        <mxCell id="F5lC8ROlCVbnqiS2axrL-252" value="&lt;font style=&quot;font-size: 8px;&quot;&gt;fecha_tent&lt;/font&gt;" style="text;html=1;align=center;verticalAlign=middle;resizable=0;points=[];autosize=1;strokeColor=none;fillColor=none;rotation=-60;" parent="1" vertex="1">
          <mxGeometry x="714" y="361.00127018922194" width="70" height="30" as="geometry" />
        </mxCell>
        <mxCell id="F5lC8ROlCVbnqiS2axrL-253" value="" style="group" parent="1" vertex="1" connectable="0">
          <mxGeometry x="716" y="402.00127018922194" width="8" height="28" as="geometry" />
        </mxCell>
        <mxCell id="F5lC8ROlCVbnqiS2axrL-254" value="" style="ellipse;whiteSpace=wrap;html=1;aspect=fixed;" parent="F5lC8ROlCVbnqiS2axrL-253" vertex="1">
          <mxGeometry width="8" height="8" as="geometry" />
        </mxCell>
        <mxCell id="F5lC8ROlCVbnqiS2axrL-255" style="edgeStyle=orthogonalEdgeStyle;rounded=0;orthogonalLoop=1;jettySize=auto;html=1;endArrow=none;startFill=0;" parent="F5lC8ROlCVbnqiS2axrL-253" edge="1">
          <mxGeometry relative="1" as="geometry">
            <mxPoint x="4" y="28" as="targetPoint" />
            <mxPoint x="4" y="8" as="sourcePoint" />
          </mxGeometry>
        </mxCell>
        <mxCell id="F5lC8ROlCVbnqiS2axrL-256" value="" style="group" parent="1" vertex="1" connectable="0">
          <mxGeometry x="696" y="401.80127018922195" width="8" height="28" as="geometry" />
        </mxCell>
        <mxCell id="F5lC8ROlCVbnqiS2axrL-257" value="" style="ellipse;whiteSpace=wrap;html=1;aspect=fixed;" parent="F5lC8ROlCVbnqiS2axrL-256" vertex="1">
          <mxGeometry width="8" height="8" as="geometry" />
        </mxCell>
        <mxCell id="F5lC8ROlCVbnqiS2axrL-258" style="edgeStyle=orthogonalEdgeStyle;rounded=0;orthogonalLoop=1;jettySize=auto;html=1;endArrow=none;startFill=0;" parent="F5lC8ROlCVbnqiS2axrL-256" edge="1">
          <mxGeometry relative="1" as="geometry">
            <mxPoint x="4" y="28" as="targetPoint" />
            <mxPoint x="4" y="8" as="sourcePoint" />
          </mxGeometry>
        </mxCell>
        <mxCell id="F5lC8ROlCVbnqiS2axrL-259" value="&lt;font style=&quot;font-size: 8px;&quot;&gt;fecha_devol(0,1)&lt;/font&gt;" style="text;html=1;align=center;verticalAlign=middle;resizable=0;points=[];autosize=1;strokeColor=none;fillColor=none;rotation=-60;" parent="1" vertex="1">
          <mxGeometry x="666" y="349.00127018922194" width="100" height="30" as="geometry" />
        </mxCell>
        <mxCell id="F5lC8ROlCVbnqiS2axrL-260" value="&lt;font style=&quot;font-size: 8px;&quot;&gt;costo&lt;/font&gt;" style="text;html=1;align=center;verticalAlign=middle;resizable=0;points=[];autosize=1;strokeColor=none;fillColor=none;rotation=-60;" parent="1" vertex="1">
          <mxGeometry x="657" y="371.00127018922194" width="50" height="30" as="geometry" />
        </mxCell>
        <mxCell id="F5lC8ROlCVbnqiS2axrL-265" value="" style="group" parent="1" vertex="1" connectable="0">
          <mxGeometry x="676" y="402.00127018922194" width="8" height="28" as="geometry" />
        </mxCell>
        <mxCell id="F5lC8ROlCVbnqiS2axrL-266" value="" style="ellipse;whiteSpace=wrap;html=1;aspect=fixed;" parent="F5lC8ROlCVbnqiS2axrL-265" vertex="1">
          <mxGeometry width="8" height="8" as="geometry" />
        </mxCell>
        <mxCell id="F5lC8ROlCVbnqiS2axrL-267" style="edgeStyle=orthogonalEdgeStyle;rounded=0;orthogonalLoop=1;jettySize=auto;html=1;endArrow=none;startFill=0;" parent="F5lC8ROlCVbnqiS2axrL-265" edge="1">
          <mxGeometry relative="1" as="geometry">
            <mxPoint x="4" y="28" as="targetPoint" />
            <mxPoint x="4" y="8" as="sourcePoint" />
          </mxGeometry>
        </mxCell>
        <mxCell id="F5lC8ROlCVbnqiS2axrL-274" value="(1,1)" style="text;html=1;align=center;verticalAlign=middle;resizable=0;points=[];autosize=1;strokeColor=none;fillColor=none;" parent="1" vertex="1">
          <mxGeometry x="304" y="401" width="60" height="30" as="geometry" />
        </mxCell>
        <mxCell id="mko7VYSiz4P31xElmZGg-1" value="&lt;font style=&quot;font-size: 8px;&quot;&gt;fecha&lt;/font&gt;" style="text;html=1;align=center;verticalAlign=middle;resizable=0;points=[];autosize=1;strokeColor=none;fillColor=none;rotation=-60;" parent="1" vertex="1">
          <mxGeometry x="471" y="389.00127018922194" width="50" height="30" as="geometry" />
        </mxCell>
        <mxCell id="mko7VYSiz4P31xElmZGg-2" value="" style="group" parent="1" vertex="1" connectable="0">
          <mxGeometry x="543" y="419.00127018922194" width="8" height="28" as="geometry" />
        </mxCell>
        <mxCell id="mko7VYSiz4P31xElmZGg-3" value="" style="ellipse;whiteSpace=wrap;html=1;aspect=fixed;" parent="mko7VYSiz4P31xElmZGg-2" vertex="1">
          <mxGeometry width="8" height="8" as="geometry" />
        </mxCell>
        <mxCell id="mko7VYSiz4P31xElmZGg-4" style="edgeStyle=orthogonalEdgeStyle;rounded=0;orthogonalLoop=1;jettySize=auto;html=1;endArrow=none;startFill=0;" parent="mko7VYSiz4P31xElmZGg-2" edge="1">
          <mxGeometry relative="1" as="geometry">
            <mxPoint x="4" y="28" as="targetPoint" />
            <mxPoint x="4" y="8" as="sourcePoint" />
          </mxGeometry>
        </mxCell>
        <mxCell id="mko7VYSiz4P31xElmZGg-5" value="&lt;font style=&quot;font-size: 8px;&quot;&gt;precio&lt;/font&gt;" style="text;html=1;align=center;verticalAlign=middle;resizable=0;points=[];autosize=1;strokeColor=none;fillColor=none;rotation=-60;" parent="1" vertex="1">
          <mxGeometry x="525" y="386.00127018922194" width="50" height="30" as="geometry" />
        </mxCell>
        <mxCell id="mko7VYSiz4P31xElmZGg-6" value="" style="group" parent="1" vertex="1" connectable="0">
          <mxGeometry x="489" y="419.00127018922194" width="8" height="28" as="geometry" />
        </mxCell>
        <mxCell id="mko7VYSiz4P31xElmZGg-7" value="" style="ellipse;whiteSpace=wrap;html=1;aspect=fixed;" parent="mko7VYSiz4P31xElmZGg-6" vertex="1">
          <mxGeometry width="8" height="8" as="geometry" />
        </mxCell>
        <mxCell id="mko7VYSiz4P31xElmZGg-8" style="edgeStyle=orthogonalEdgeStyle;rounded=0;orthogonalLoop=1;jettySize=auto;html=1;endArrow=none;startFill=0;" parent="mko7VYSiz4P31xElmZGg-6" edge="1">
          <mxGeometry relative="1" as="geometry">
            <mxPoint x="4" y="28" as="targetPoint" />
            <mxPoint x="4" y="8" as="sourcePoint" />
          </mxGeometry>
        </mxCell>
        <mxCell id="P5kAmeYfMl_gvFz5pI4C-1" value="" style="group" vertex="1" connectable="0" parent="1">
          <mxGeometry x="1106" y="402.001270189222" width="8" height="28" as="geometry" />
        </mxCell>
        <mxCell id="P5kAmeYfMl_gvFz5pI4C-2" value="" style="ellipse;whiteSpace=wrap;html=1;aspect=fixed;" vertex="1" parent="P5kAmeYfMl_gvFz5pI4C-1">
          <mxGeometry width="8" height="8" as="geometry" />
        </mxCell>
        <mxCell id="P5kAmeYfMl_gvFz5pI4C-3" style="edgeStyle=orthogonalEdgeStyle;rounded=0;orthogonalLoop=1;jettySize=auto;html=1;endArrow=none;startFill=0;" edge="1" parent="P5kAmeYfMl_gvFz5pI4C-1">
          <mxGeometry relative="1" as="geometry">
            <mxPoint x="4" y="28" as="targetPoint" />
            <mxPoint x="4" y="8" as="sourcePoint" />
          </mxGeometry>
        </mxCell>
        <mxCell id="P5kAmeYfMl_gvFz5pI4C-4" value="" style="group" vertex="1" connectable="0" parent="1">
          <mxGeometry x="1126" y="402.001270189222" width="8" height="28" as="geometry" />
        </mxCell>
        <mxCell id="P5kAmeYfMl_gvFz5pI4C-5" value="" style="ellipse;whiteSpace=wrap;html=1;aspect=fixed;" vertex="1" parent="P5kAmeYfMl_gvFz5pI4C-4">
          <mxGeometry width="8" height="8" as="geometry" />
        </mxCell>
        <mxCell id="P5kAmeYfMl_gvFz5pI4C-6" style="edgeStyle=orthogonalEdgeStyle;rounded=0;orthogonalLoop=1;jettySize=auto;html=1;endArrow=none;startFill=0;" edge="1" parent="P5kAmeYfMl_gvFz5pI4C-4">
          <mxGeometry relative="1" as="geometry">
            <mxPoint x="4" y="28" as="targetPoint" />
            <mxPoint x="4" y="8" as="sourcePoint" />
          </mxGeometry>
        </mxCell>
        <mxCell id="P5kAmeYfMl_gvFz5pI4C-7" value="" style="group" vertex="1" connectable="0" parent="1">
          <mxGeometry x="1146" y="402.001270189222" width="8" height="28" as="geometry" />
        </mxCell>
        <mxCell id="P5kAmeYfMl_gvFz5pI4C-8" value="" style="ellipse;whiteSpace=wrap;html=1;aspect=fixed;" vertex="1" parent="P5kAmeYfMl_gvFz5pI4C-7">
          <mxGeometry width="8" height="8" as="geometry" />
        </mxCell>
        <mxCell id="P5kAmeYfMl_gvFz5pI4C-9" style="edgeStyle=orthogonalEdgeStyle;rounded=0;orthogonalLoop=1;jettySize=auto;html=1;endArrow=none;startFill=0;" edge="1" parent="P5kAmeYfMl_gvFz5pI4C-7">
          <mxGeometry relative="1" as="geometry">
            <mxPoint x="4" y="28" as="targetPoint" />
            <mxPoint x="4" y="8" as="sourcePoint" />
          </mxGeometry>
        </mxCell>
        <mxCell id="P5kAmeYfMl_gvFz5pI4C-10" value="" style="group" vertex="1" connectable="0" parent="1">
          <mxGeometry x="1166" y="402.001270189222" width="8" height="28" as="geometry" />
        </mxCell>
        <mxCell id="P5kAmeYfMl_gvFz5pI4C-11" value="" style="ellipse;whiteSpace=wrap;html=1;aspect=fixed;" vertex="1" parent="P5kAmeYfMl_gvFz5pI4C-10">
          <mxGeometry width="8" height="8" as="geometry" />
        </mxCell>
        <mxCell id="P5kAmeYfMl_gvFz5pI4C-12" style="edgeStyle=orthogonalEdgeStyle;rounded=0;orthogonalLoop=1;jettySize=auto;html=1;endArrow=none;startFill=0;" edge="1" parent="P5kAmeYfMl_gvFz5pI4C-10">
          <mxGeometry relative="1" as="geometry">
            <mxPoint x="4" y="28" as="targetPoint" />
            <mxPoint x="4" y="8" as="sourcePoint" />
          </mxGeometry>
        </mxCell>
        <mxCell id="P5kAmeYfMl_gvFz5pI4C-13" value="&lt;font style=&quot;font-size: 8px;&quot;&gt;calle&lt;/font&gt;" style="text;html=1;align=center;verticalAlign=middle;resizable=0;points=[];autosize=1;strokeColor=none;fillColor=none;rotation=-60;" vertex="1" parent="1">
          <mxGeometry x="1087" y="370.001270189222" width="50" height="30" as="geometry" />
        </mxCell>
        <mxCell id="P5kAmeYfMl_gvFz5pI4C-14" value="&lt;font style=&quot;font-size: 8px;&quot;&gt;numero&lt;/font&gt;" style="text;html=1;align=center;verticalAlign=middle;resizable=0;points=[];autosize=1;strokeColor=none;fillColor=none;rotation=-60;" vertex="1" parent="1">
          <mxGeometry x="1109" y="368.001270189222" width="50" height="30" as="geometry" />
        </mxCell>
        <mxCell id="P5kAmeYfMl_gvFz5pI4C-15" value="&lt;font style=&quot;font-size: 8px;&quot;&gt;piso(0,1)&lt;/font&gt;" style="text;html=1;align=center;verticalAlign=middle;resizable=0;points=[];autosize=1;strokeColor=none;fillColor=none;rotation=-60;" vertex="1" parent="1">
          <mxGeometry x="1121" y="362.001270189222" width="70" height="30" as="geometry" />
        </mxCell>
        <mxCell id="P5kAmeYfMl_gvFz5pI4C-16" value="&lt;font style=&quot;font-size: 8px;&quot;&gt;dpto(0,1)&lt;/font&gt;" style="text;html=1;align=center;verticalAlign=middle;resizable=0;points=[];autosize=1;strokeColor=none;fillColor=none;rotation=-60;" vertex="1" parent="1">
          <mxGeometry x="1143" y="363.001270189222" width="70" height="30" as="geometry" />
        </mxCell>
        <mxCell id="P5kAmeYfMl_gvFz5pI4C-17" value="es_un1" style="rhombus;whiteSpace=wrap;html=1;" vertex="1" parent="1">
          <mxGeometry x="1000" y="582" width="80" height="80" as="geometry" />
        </mxCell>
        <mxCell id="P5kAmeYfMl_gvFz5pI4C-28" style="edgeStyle=orthogonalEdgeStyle;rounded=0;orthogonalLoop=1;jettySize=auto;html=1;entryX=0.25;entryY=0;entryDx=0;entryDy=0;endArrow=none;startFill=0;" edge="1" parent="1" source="P5kAmeYfMl_gvFz5pI4C-18" target="F5lC8ROlCVbnqiS2axrL-206">
          <mxGeometry relative="1" as="geometry" />
        </mxCell>
        <mxCell id="P5kAmeYfMl_gvFz5pI4C-18" value="es_un2" style="rhombus;whiteSpace=wrap;html=1;" vertex="1" parent="1">
          <mxGeometry x="1160" y="582" width="80" height="80" as="geometry" />
        </mxCell>
        <mxCell id="P5kAmeYfMl_gvFz5pI4C-21" value="" style="endArrow=none;html=1;rounded=0;entryX=0.25;entryY=1;entryDx=0;entryDy=0;exitX=0.5;exitY=0;exitDx=0;exitDy=0;" edge="1" parent="1" source="P5kAmeYfMl_gvFz5pI4C-17" target="F5lC8ROlCVbnqiS2axrL-5">
          <mxGeometry width="50" height="50" relative="1" as="geometry">
            <mxPoint x="980" y="650" as="sourcePoint" />
            <mxPoint x="1030" y="600" as="targetPoint" />
          </mxGeometry>
        </mxCell>
        <mxCell id="P5kAmeYfMl_gvFz5pI4C-22" value="" style="endArrow=none;html=1;rounded=0;entryX=0.75;entryY=1;entryDx=0;entryDy=0;exitX=0.5;exitY=0;exitDx=0;exitDy=0;" edge="1" parent="1" source="P5kAmeYfMl_gvFz5pI4C-18" target="F5lC8ROlCVbnqiS2axrL-5">
          <mxGeometry width="50" height="50" relative="1" as="geometry">
            <mxPoint x="980" y="650" as="sourcePoint" />
            <mxPoint x="1030" y="600" as="targetPoint" />
          </mxGeometry>
        </mxCell>
        <mxCell id="P5kAmeYfMl_gvFz5pI4C-23" value="(0,1)" style="text;html=1;align=center;verticalAlign=middle;resizable=0;points=[];autosize=1;strokeColor=none;fillColor=none;" vertex="1" parent="1">
          <mxGeometry x="1006" y="489.99999999999994" width="60" height="30" as="geometry" />
        </mxCell>
        <mxCell id="P5kAmeYfMl_gvFz5pI4C-24" value="(0,1)" style="text;html=1;align=center;verticalAlign=middle;resizable=0;points=[];autosize=1;strokeColor=none;fillColor=none;" vertex="1" parent="1">
          <mxGeometry x="1169" y="489.79999999999995" width="60" height="30" as="geometry" />
        </mxCell>
        <mxCell id="P5kAmeYfMl_gvFz5pI4C-26" value="(1,1)" style="text;html=1;align=center;verticalAlign=middle;resizable=0;points=[];autosize=1;strokeColor=none;fillColor=none;" vertex="1" parent="1">
          <mxGeometry x="985" y="703" width="60" height="30" as="geometry" />
        </mxCell>
        <mxCell id="P5kAmeYfMl_gvFz5pI4C-27" style="edgeStyle=orthogonalEdgeStyle;rounded=0;orthogonalLoop=1;jettySize=auto;html=1;entryX=1.011;entryY=0.967;entryDx=0;entryDy=0;entryPerimeter=0;exitX=0.5;exitY=1;exitDx=0;exitDy=0;endArrow=none;startFill=0;" edge="1" parent="1" source="P5kAmeYfMl_gvFz5pI4C-17">
          <mxGeometry relative="1" as="geometry">
            <mxPoint x="1049.34" y="673" as="sourcePoint" />
            <mxPoint x="1039.9999999999998" y="730.0100000000001" as="targetPoint" />
          </mxGeometry>
        </mxCell>
        <mxCell id="P5kAmeYfMl_gvFz5pI4C-29" value="(1,1)" style="text;html=1;align=center;verticalAlign=middle;resizable=0;points=[];autosize=1;strokeColor=none;fillColor=none;" vertex="1" parent="1">
          <mxGeometry x="1191" y="704" width="60" height="30" as="geometry" />
        </mxCell>
        <mxCell id="P5kAmeYfMl_gvFz5pI4C-30" value="" style="curved=1;endArrow=none;html=1;rounded=0;exitX=0.055;exitY=1.084;exitDx=0;exitDy=0;exitPerimeter=0;startFill=0;" edge="1" parent="1">
          <mxGeometry width="50" height="50" relative="1" as="geometry">
            <mxPoint x="985.3" y="459.99999999999983" as="sourcePoint" />
            <mxPoint x="711" y="420" as="targetPoint" />
            <Array as="points">
              <mxPoint x="962" y="417.68" />
              <mxPoint x="892" y="407.68" />
              <mxPoint x="852" y="407.68" />
            </Array>
          </mxGeometry>
        </mxCell>
        <mxCell id="P5kAmeYfMl_gvFz5pI4C-31" value="&amp;nbsp;" style="text;whiteSpace=wrap;html=1;" vertex="1" parent="1">
          <mxGeometry x="610" y="250" width="40" height="40" as="geometry" />
        </mxCell>
        <mxCell id="P5kAmeYfMl_gvFz5pI4C-33" value="" style="ellipse;whiteSpace=wrap;html=1;aspect=fixed;fillColor=light-dark(#FFFFFF,#FFFFFF);" vertex="1" parent="1">
          <mxGeometry x="705" y="416.00127018922194" width="8" height="8" as="geometry" />
        </mxCell>
      </root>
    </mxGraphModel>
  </diagram>
</mxfile>
